Coordinates
version=1
nRows=16
nColumns=36
inDegrees=yes

Units are S.I. units (second, meters, Newtons, ...)
If the header above contains a line with 'inDegrees', this indicates whether rotational values are in degrees (yes) or radians (no).

endheader
time	pelvis_tilt	pelvis_list	pelvis_rotation	pelvis_tx	pelvis_ty	pelvis_tz	hip_flexion_r	hip_adduction_r	hip_rotation_r	knee_angle_r	knee_angle_r_beta	ankle_angle_r	subtalar_angle_r	mtp_angle_r	hip_flexion_l	hip_adduction_l	hip_rotation_l	knee_angle_l	knee_angle_l_beta	ankle_angle_l	subtalar_angle_l	mtp_angle_l	lumbar_extension	lumbar_bending	lumbar_rotation	arm_flex_r	arm_add_r	arm_rot_r	elbow_flex_r	pro_sup_r	arm_flex_l	arm_add_l	arm_rot_l	elbow_flex_l	pro_sup_l
      0.00000000	      4.14757854	      3.29731296	      2.93529080	     -0.16127039	      1.23096671	      0.10606476	     -5.18312595	     -4.01443797	     -6.19578852	      7.40282479	      0.12920367	      2.07769787	    -15.16103817	     -5.45385291	     -5.92557463	      0.09172844	     -9.63985941	      4.46856829	      0.07799123	      8.50394993	     -2.82087062	     -5.45385291	    -14.04487934	     -2.98433381	     -0.57454340	      9.45686839	     -9.36420849	     26.88018972	     26.80464474	     74.52972709	      3.12415213	     -8.38665282	     17.12770036	     29.30636747	     68.69372940
      0.01666670	      0.14274052	      2.10517658	      2.12715745	     -0.15676729	      1.21958470	      0.10735156	     -0.59489628	     -2.91839529	     -4.66608821	      8.12730986	      0.14184832	      6.90452860	    -10.47558032	     -6.09690051	     -1.07741167	     -1.10946825	    -11.89529489	      5.30901443	      0.09265978	      9.38244269	     -2.26135909	     -6.09690051	     -7.47071874	     -1.85889031	      0.15652407	      8.43452177	     -9.47333959	     26.24309744	     26.32702987	     73.01461072	      1.79217152	     -7.35563641	     16.64894540	     28.02609842	     67.93033388
      0.03333330	     -0.95662690	      1.87322015	      1.35123159	     -0.15378089	      1.21592961	      0.10972329	      0.38593711	     -2.50778485	     -4.43527190	      8.41772701	      0.14691705	      8.50756100	     -9.82596233	     -6.23650416	      0.65904311	     -1.54712976	    -13.35804144	      6.28794113	      0.10974528	     10.20516533	     -1.74995574	     -6.23650416	     -5.39611678	     -1.88097828	      0.65598393	      8.19024351	     -8.96192269	     25.07384461	     26.04195109	     72.74589054	      1.35865724	     -7.46609355	     16.86937381	     27.72411765	     68.06799848
      0.05000000	     -1.43480982	      2.01893531	      0.96479186	     -0.15330721	      1.21606367	      0.11211650	      0.93164373	     -2.51304920	     -4.53353826	      8.42659623	      0.14707185	      9.69642226	     -8.76039737	     -6.40823870	      1.09191332	     -1.54268920	    -13.88707885	      6.40765260	      0.11183464	     10.78544503	     -1.80094366	     -6.40823870	     -4.42895259	     -2.22082403	      1.13853259	      7.83823080	     -8.59396250	     23.72757759	     26.13847151	     73.04317547	      1.40677920	     -7.96224804	     17.97061051	     27.34438843	     69.02697852
      0.06666670	     -1.87021448	      2.18493251	      0.55060311	     -0.15249056	      1.21529409	      0.11360309	      1.39147864	     -2.58523388	     -4.41144310	      8.36567660	      0.14600860	     10.48410970	     -8.27184100	     -6.53534747	      1.57286615	     -1.46237072	    -13.79899806	      6.47499278	      0.11300994	     11.33783849	     -2.18484568	     -6.53534747	     -3.86630116	     -2.37710830	      1.47067460	      7.39563616	     -8.54803571	     23.14342790	     27.04440942	     72.07422316	      1.17167469	     -8.30973925	     17.82783740	     28.28819523	     68.50932322
      0.08333330	     -2.41808102	      2.33838590	      0.37789645	     -0.15376779	      1.21393729	      0.11506034	      2.21292806	     -2.65409858	     -4.36544513	      8.56772109	      0.14953494	     11.29378163	     -7.63702341	     -6.72365742	      2.29477240	     -1.45730958	    -14.20834022	      6.81901798	      0.11901432	     12.06348410	     -1.70462412	     -6.72365742	     -3.08283122	     -2.44695607	      1.86440843	      7.40042437	     -8.72438609	     24.68959434	     27.01468778	     72.66079564	      1.76743740	     -8.81612931	     20.40851189	     27.87812238	     70.06476753
      0.10000000	     -2.90094758	      2.43855798	      0.19383941	     -0.15723508	      1.21310953	      0.11694962	      3.06208290	     -2.72500269	     -4.29918765	      8.79937497	      0.15357807	     11.86714175	     -7.22748191	     -6.83297948	      3.09575801	     -1.50079518	    -14.21951956	      7.22169460	      0.12604235	     12.71384756	     -1.63680945	     -6.83297948	     -2.73124734	     -2.44178345	      2.08603299	      7.55467640	     -8.86559073	     25.67496367	     27.22720711	     72.49780339	      2.16164986	     -9.07637609	     21.10112940	     28.28451115	     70.40313523
      0.11666670	     -3.01310180	      2.69359500	      0.11739520	     -0.15121664	      1.21215379	      0.12028355	      2.85311875	     -2.91561376	     -4.33225328	      8.58041270	      0.14975645	     11.55058757	     -7.01623454	     -6.83576328	      3.24253805	     -1.39205602	    -14.32181440	      7.45987241	      0.13019934	     12.85475030	     -1.69958198	     -6.83576328	     -2.44494033	     -2.65974926	      2.15214481	      7.54156339	     -8.73415280	     25.81677700	     27.33628842	     72.53492746	      2.30813277	     -9.28938586	     21.13261397	     28.36665604	     70.44934422
      0.13333330	     -3.25429948	      2.76506221	      0.14795352	     -0.15234414	      1.21371824	      0.12146753	      3.07201497	     -2.89896585	     -4.53564217	      8.69980955	      0.15184032	     11.46185348	     -6.81187925	     -6.88702816	      3.52559404	     -1.45545546	    -14.44397484	      7.84191067	      0.13686716	     13.13996057	     -1.60099914	     -6.88702816	     -2.25094218	     -2.65090712	      2.29832768	      7.29788859	     -8.92388833	     26.45584803	     27.91087975	     72.13154386	      2.46127641	     -9.47862205	     21.51438791	     28.85695902	     70.24625122
      0.15000000	     -3.36738424	      2.81487916	      0.11443410	     -0.15168924	      1.21114004	      0.12359806	      3.05154109	     -2.86538316	     -4.63144809	      8.63104001	      0.15064007	     11.32846831	     -6.98311241	     -6.95780839	      3.69269906	     -1.54510298	    -14.41534985	      8.17127408	      0.14261564	     13.63061663	     -1.39099557	     -6.95780839	     -1.98601498	     -2.62490477	      2.25555291	      7.34398048	     -9.07316772	     27.62393850	     28.20426260	     71.78783145	      2.61013348	     -9.72610336	     22.36362158	     28.86895072	     70.16691271
      0.16666670	     -3.96206398	      2.91779106	      0.04602577	     -0.15720772	      1.21344060	      0.12264478	      3.94144966	     -2.95346511	     -4.66494254	      8.85471787	      0.15454398	     10.87634954	     -7.27692686	     -6.98044105	      4.38986642	     -1.49474541	    -14.62476428	      8.36879088	      0.14606296	     13.48620499	     -1.81814991	     -6.98044105	     -1.43108603	     -2.57500191	      2.31998060	      7.40575572	     -9.33590063	     28.95052352	     28.48361058	     72.13496758	      2.86100945	    -10.00396263	     23.47550879	     28.93816923	     70.75180982
      0.18333330	     -3.99268418	      2.96785031	     -0.11131173	     -0.15615406	      1.21295564	      0.12420236	      4.13579179	     -3.00835624	     -4.70229252	      8.87799052	      0.15495017	     10.61923758	     -7.38480586	     -7.01525057	      4.34861784	     -1.44846318	    -14.57948228	      8.18155224	      0.14279502	     13.48940122	     -2.03843156	     -7.01525057	     -1.65972065	     -2.45597536	      2.38566083	      7.47352605	     -9.43744091	     28.99240943	     28.84804284	     71.52154175	      3.02595250	    -10.08578264	     23.43012392	     29.30265959	     70.32476189
      0.20000000	     -4.31553050	      3.03401838	      0.02999662	     -0.15175951	      1.20961836	      0.12528145	      4.47563245	     -3.00681706	     -4.65621212	      8.72014086	      0.15219517	     10.16607871	     -7.71979764	     -7.04956841	      4.50539117	     -1.36895647	    -14.40672525	      7.89010883	      0.13770838	     13.42962523	     -1.83785638	     -7.04956841	     -1.23213179	     -2.36811958	      2.27597283	      7.50384231	     -9.64043526	     30.42954409	     28.87471719	     71.93157991	      3.20133854	    -10.31188349	     24.71764952	     29.13401733	     71.20388055
      0.21666670	     -4.47735516	      3.03921465	      0.08485088	     -0.15609678	      1.21322226	      0.12540578	      4.77632361	     -2.95646133	     -4.41026162	      8.65919044	      0.15113138	     10.12121070	     -7.56656237	     -7.05027005	      4.61651813	     -1.28823916	    -14.10001948	      7.56993680	      0.13212032	     13.49509175	     -1.64851423	     -7.05027005	     -1.36226025	     -2.14535023	      2.22526434	      7.62103635	     -9.68658800	     30.41883444	     28.89441925	     71.93034596	      3.41801484	    -10.34820850	     24.69760064	     29.18524430	     71.21366922
      0.23333330	     -4.52241462	      3.05979851	      0.34670384	     -0.14880499	      1.20960393	      0.12665704	      4.63302515	     -2.93253030	     -4.80700340	      8.39405145	      0.14650384	     10.13247300	     -7.03194468	     -7.07546797	      4.11307265	     -1.15502890	    -13.77520633	      6.67564673	      0.11651202	     13.39827990	     -1.01953845	     -7.07546797	     -1.09244580	     -2.04745837	      2.05025085	      7.28050856	     -9.75251752	     30.14183428	     29.24047522	     71.16302469	      3.14875391	    -10.34352630	     24.41071632	     29.50497700	     70.61447397
      0.25000000	     -4.55396592	      3.04453814	      0.44116966	     -0.14794746	      1.21381192	      0.12798895	      4.45709764	     -2.77544290	     -4.54076756	      8.01513618	      0.13989052	      9.92017468	     -7.30073941	     -7.10562053	      3.55953095	     -1.09278077	    -13.64332737	      5.75840965	      0.10050321	     13.16010818	     -0.62714881	     -7.10562053	     -0.95327290	     -1.85825480	      2.09820398	      7.03084202	     -9.78165605	     29.91556800	     29.41996076	     70.67690162	      3.01360494	    -10.32204030	     24.21614855	     29.57620032	     70.34574476
